<svg width="252" height="112" viewBox="0 0 252 112" fill="none" xmlns="http://www.w3.org/2000/svg">
<path d="M45.1105 2.11333C45.5279 1.33062 46.2323 0.782716 47.2238 0.469628C48.2152 0.156543 49.4676 0 50.9808 0C52.4941 0 53.6942 0.130452 54.5813 0.391357C55.4684 0.652262 56.1467 0.965349 56.6164 1.33062C57.086 1.69588 57.4513 2.21769 57.7122 2.89605C57.9731 3.78312 58.1035 5.13983 58.1035 6.96616V50.4069C58.1035 51.607 58.0513 52.5202 57.947 53.1464C57.8948 53.7204 57.66 54.3987 57.2425 55.1814C56.512 56.5903 54.4769 57.2948 51.1374 57.2948C47.4847 57.2948 45.3453 56.3294 44.7191 54.3987C44.406 53.5116 44.2495 52.1549 44.2495 50.3286V34.4395H23.5075V50.4069C23.5075 51.607 23.4553 52.5202 23.351 53.1464C23.2988 53.7204 23.064 54.3987 22.6465 55.1814C21.916 56.5903 19.8809 57.2948 16.5414 57.2948C12.8887 57.2948 10.7493 56.3294 10.1231 54.3987C9.81 53.5116 9.65346 52.1549 9.65346 50.3286V6.88789C9.65346 5.68773 9.67955 4.80065 9.73173 4.22666C9.83609 3.60049 10.097 2.89605 10.5144 2.11333C11.245 0.704444 13.28 0 16.6196 0C20.2723 0 22.4378 0.965349 23.1162 2.89605C23.3771 3.78312 23.5075 5.13983 23.5075 6.96616V22.9336H44.2495V6.88789C44.2495 5.68773 44.2756 4.80065 44.3277 4.22666C44.4321 3.60049 44.693 2.89605 45.1105 2.11333Z" fill="#F4442E"/>
<path fill-rule="evenodd" clip-rule="evenodd" d="M91.1512 20.5071C91.4643 17.585 93.5255 16.1239 97.3347 16.1239C99.3697 16.1239 100.883 16.2805 101.874 16.5936C102.866 16.9066 103.544 17.4545 103.909 18.2373C104.327 19.02 104.562 19.7244 104.614 20.3506C104.718 20.9246 104.77 21.8117 104.77 23.0118V50.4069C104.77 51.607 104.718 52.5202 104.614 53.1464C104.562 53.7204 104.353 54.3987 103.988 55.1814C103.257 56.5381 101.457 57.2165 98.587 57.2165C95.7693 57.2165 93.8646 56.8773 92.8732 56.199C91.9339 55.4684 91.386 54.4248 91.2295 53.0681C89.2988 55.8337 86.0636 57.2165 81.5238 57.2165C77.0363 57.2165 72.8618 55.1553 69.0004 51.033C65.139 46.9107 63.2083 42.1362 63.2083 36.7093C63.2083 31.2303 65.139 26.4558 69.0004 22.3857C72.914 18.2634 77.1928 16.2022 81.8369 16.2022C83.6111 16.2022 85.2287 16.5153 86.6898 17.1415C88.1508 17.7676 89.1684 18.3677 89.7423 18.9417C90.3163 19.4635 90.786 19.9853 91.1512 20.5071ZM76.9058 36.7876C76.9058 38.5096 77.5842 40.075 78.9409 41.4839C80.2976 42.8406 81.9413 43.519 83.872 43.519C85.8027 43.519 87.3942 42.8145 88.6465 41.4056C89.9511 39.9967 90.6033 38.4574 90.6033 36.7876C90.6033 35.0656 89.9772 33.4741 88.7248 32.0131C87.5247 30.552 85.8809 29.8214 83.7937 29.8214C81.7586 29.8214 80.0889 30.552 78.7843 32.0131C77.532 33.4741 76.9058 35.0656 76.9058 36.7876Z" fill="#F4442E"/>
<path fill-rule="evenodd" clip-rule="evenodd" d="M111.009 22.8553V68.5659C111.009 69.766 111.035 70.6531 111.087 71.2271C111.192 71.8011 111.426 72.4533 111.792 73.1839C112.209 73.9144 112.887 74.4362 113.827 74.7493C114.818 75.0624 116.123 75.2189 117.74 75.2189C119.358 75.2189 120.636 75.0624 121.576 74.7493C122.515 74.4362 123.167 73.8883 123.532 73.1056C123.95 72.3751 124.185 71.7228 124.237 71.1488C124.341 70.5748 124.393 69.6877 124.393 68.4876V52.6767C126.324 55.0771 129.429 56.2772 133.708 56.2772C137.987 56.2772 142.004 54.2683 145.762 50.2503C149.571 46.2324 151.475 41.5622 151.475 36.2397C151.475 30.9173 149.571 26.247 145.762 22.2291C141.952 18.2112 137.908 16.2022 133.629 16.2022C129.403 16.2022 126.298 17.5589 124.315 20.2723C124.159 18.9156 123.585 17.8981 122.593 17.2197C121.654 16.4892 119.801 16.1239 117.036 16.1239C114.27 16.1239 112.522 16.8284 111.792 18.2373C111.426 18.9678 111.192 19.6201 111.087 20.1941C111.035 20.768 111.009 21.6551 111.009 22.8553ZM124.706 36.318C124.706 34.6482 125.307 33.1089 126.507 31.7C127.707 30.2911 129.298 29.5866 131.281 29.5866C133.316 29.5866 134.96 30.2911 136.212 31.7C137.465 33.0567 138.091 34.596 138.091 36.318C138.091 38.04 137.413 39.5793 136.056 40.936C134.751 42.2927 133.134 42.9711 131.203 42.9711C129.324 42.9711 127.759 42.2927 126.507 40.936C125.307 39.5271 124.706 37.9878 124.706 36.318Z" fill="#F4442E"/>
<path fill-rule="evenodd" clip-rule="evenodd" d="M156.565 68.5659V22.8553C156.565 21.6551 156.592 20.768 156.644 20.1941C156.748 19.6201 156.983 18.9678 157.348 18.2373C158.079 16.8284 159.827 16.1239 162.592 16.1239C165.358 16.1239 167.21 16.4892 168.15 17.2197C169.141 17.8981 169.715 18.9156 169.872 20.2723C171.854 17.5589 174.959 16.2022 179.186 16.2022C183.465 16.2022 187.509 18.2112 191.318 22.2291C195.127 26.247 197.032 30.9173 197.032 36.2397C197.032 41.5622 195.127 46.2324 191.318 50.2503C187.561 54.2683 183.543 56.2772 179.264 56.2772C174.985 56.2772 171.881 55.0771 169.95 52.6767V68.4876C169.95 69.6877 169.898 70.5748 169.793 71.1488C169.741 71.7228 169.506 72.3751 169.089 73.1056C168.724 73.8883 168.071 74.4362 167.132 74.7493C166.193 75.0624 164.914 75.2189 163.297 75.2189C161.679 75.2189 160.375 75.0624 159.383 74.7493C158.444 74.4362 157.766 73.9144 157.348 73.1839C156.983 72.4533 156.748 71.8011 156.644 71.2271C156.592 70.6531 156.565 69.766 156.565 68.5659ZM172.063 31.7C170.863 33.1089 170.263 34.6482 170.263 36.318C170.263 37.9878 170.863 39.5271 172.063 40.936C173.316 42.2927 174.881 42.9711 176.759 42.9711C178.69 42.9711 180.308 42.2927 181.612 40.936C182.969 39.5793 183.647 38.04 183.647 36.318C183.647 34.596 183.021 33.0567 181.769 31.7C180.517 30.2911 178.873 29.5866 176.838 29.5866C174.855 29.5866 173.263 30.2911 172.063 31.7Z" fill="#F4442E"/>
<path d="M242.723 21.5247C242.723 19.594 241.184 17.9503 238.105 16.5936C236.436 15.863 234.975 15.4978 233.722 15.4978C232.522 15.4978 231.583 15.9413 230.904 16.8284C230.487 17.3502 230.174 17.7937 229.965 18.159C229.809 18.5243 228.452 21.5247 225.895 27.1602C223.338 32.7436 221.929 35.9527 221.668 36.7876C219.32 32.9784 216.842 28.8822 214.233 24.499C211.676 20.0636 210.241 17.6372 209.928 17.2197C209.667 16.7501 209.223 16.3066 208.597 15.8891C207.971 15.4717 207.162 15.2629 206.171 15.2629C205.179 15.2629 203.796 15.7848 202.022 16.8284C199.204 18.4982 197.796 20.168 197.796 21.8378C197.796 22.6726 198.317 23.9511 199.361 25.6731L214.937 51.894C209.928 62.5911 207.423 68.5658 207.423 69.8182C207.423 71.6967 208.962 73.3143 212.041 74.671C213.867 75.4537 215.25 75.8451 216.189 75.8451C217.129 75.8451 217.911 75.6103 218.538 75.1407C219.164 74.671 219.607 74.1753 219.868 73.6535C220.181 73.1317 220.546 72.3751 220.964 71.3836L241.471 25.5165C241.471 25.4643 241.68 25.0208 242.097 24.1859C242.515 23.351 242.723 22.4639 242.723 21.5247Z" fill="#F4442E"/>
<path d="M251.121 65.5263C251.121 61.9239 248.201 59.0037 244.598 59.0037C240.996 59.0037 238.076 61.9239 238.076 65.5263C238.076 68.0552 236.585 71.5712 231.431 75.747C226.333 79.8776 218.414 83.9823 207.658 87.5923C186.187 94.7983 156.651 98.9547 125.561 98.9547C94.4706 98.9547 64.9343 94.7983 43.4634 87.5923C32.707 83.9823 24.788 79.8776 19.6901 75.747C14.5363 71.5712 13.0453 68.0552 13.0453 65.5263C13.0453 61.9239 10.125 59.0037 6.52263 59.0037C2.92028 59.0037 0 61.924 0 65.5263C3.49901e-06 73.5931 4.77967 80.4558 11.4776 85.8828C18.2314 91.355 27.7451 96.0774 39.3127 99.9596C62.4896 107.738 93.5089 112 125.561 112C157.612 112 188.631 107.738 211.808 99.9596C223.376 96.0774 232.89 91.355 239.644 85.8828C246.341 80.4558 251.121 73.5931 251.121 65.5263Z" fill="#F4442E"/>
</svg>
